<svg width="40" height="34" viewBox="0 0 40 34" fill="none" xmlns="http://www.w3.org/2000/svg">
<path d="M34.7027 25.8298H12.2006L5.58229 1.28363H1.61133M6.90595 5.95909H38.6736L34.7027 21.1543H10.8769L6.90595 5.95909Z" stroke="#595959" stroke-width="1.80339" stroke-linecap="round" stroke-linejoin="round"/>
<path d="M32.0555 32.843C33.5176 32.843 34.7028 31.7964 34.7028 30.5053C34.7028 29.2142 33.5176 28.1675 32.0555 28.1675C30.5934 28.1675 29.4082 29.2142 29.4082 30.5053C29.4082 31.7964 30.5934 32.843 32.0555 32.843Z" stroke="#595959" stroke-width="1.80339" stroke-linecap="round" stroke-linejoin="round"/>
<path d="M14.848 32.843C16.3101 32.843 17.4953 31.7964 17.4953 30.5053C17.4953 29.2142 16.3101 28.1675 14.848 28.1675C13.3859 28.1675 12.2007 29.2142 12.2007 30.5053C12.2007 31.7964 13.3859 32.843 14.848 32.843Z" stroke="#595959" stroke-width="1.80339" stroke-linecap="round" stroke-linejoin="round"/>
</svg>
