<svg width="98" height="32" viewBox="0 0 98 32" fill="none" xmlns="http://www.w3.org/2000/svg">
<path d="M15.5857 0C6.97795 0 0 6.97795 0 15.5857H2C2 8.08252 8.08252 1.94101 15.5857 1.94101V0ZM82.3975 0H15.5857V1.94101L82.3975 1.99999V0ZM97.9832 15.5857C97.9832 6.97795 91.0053 0 82.3975 0V1.99999C89.9007 1.99999 95.9832 8.08252 95.9832 15.5857H97.9832ZM82.3975 31.1714C91.0053 31.1714 97.9832 24.1935 97.9832 15.5857H95.9832C95.9832 23.0889 89.9007 29.1714 82.3975 29.1714V31.1714ZM15.5857 31.1714H82.3975V29.1714H15.5857V31.1714ZM0 15.5857C0 24.1935 6.97797 31.1714 15.5857 31.1714V29.1714C8.08253 29.1714 2 23.0889 2 15.5857H0Z" fill="#DADADA"/>
<path d="M47.0678 21H41.9005V11.7306H47.0678V12.6879H42.9783V15.6742H46.8205V16.6252H42.9783V20.0363H47.0678V21ZM48.3865 18.0011V17.0373H51.4996V18.0011H48.3865ZM57.415 21L54.2703 12.783H54.2196C54.2787 13.434 54.3083 14.2075 54.3083 15.1036V21H53.3129V11.7306H54.936L57.8715 19.3769H57.9223L60.8832 11.7306H62.4936V21H61.4157V15.0275C61.4157 14.3427 61.4453 13.5988 61.5045 12.7957H61.4538L58.2837 21H57.415ZM70.869 21L69.7151 18.0518H65.9997L64.8585 21H63.768L67.4326 11.6925H68.3393L71.9849 21H70.869ZM69.3791 17.0817L68.3012 14.2096C68.1618 13.8461 68.0181 13.4002 67.8701 12.8718C67.7771 13.2776 67.644 13.7235 67.4707 14.2096L66.3802 17.0817H69.3791ZM73.2593 21V11.7306H74.3372V21H73.2593ZM76.8859 21V11.7306H77.9638V20.0236H82.0532V21H76.8859Z" fill="white"/>
<path d="M18.9141 10.1719H30.5703C31.3717 10.1719 32.0273 10.8275 32.0273 11.6289V20.3711C32.0273 21.1725 31.3717 21.8281 30.5703 21.8281H18.9141C18.1127 21.8281 17.457 21.1725 17.457 20.3711V11.6289C17.457 10.8275 18.1127 10.1719 18.9141 10.1719Z" fill="#1C68AF" stroke="white" stroke-width="1.45703" stroke-linecap="round" stroke-linejoin="round"/>
<path d="M32.0273 11.6289L24.7422 16.7285L17.457 11.6289" stroke="white" stroke-width="1.45703" stroke-linecap="round" stroke-linejoin="round"/>
</svg>
