<svg width="215" height="53" viewBox="0 0 215 53" fill="none" xmlns="http://www.w3.org/2000/svg">
<path d="M63.9822 24.5453C63.156 24.5453 62.5115 24.8851 62.0486 25.5648C61.5857 26.2386 61.3542 27.1703 61.3542 28.3597C61.3542 30.8324 62.2947 32.0687 64.1755 32.0687C64.7439 32.0687 65.2947 31.9896 65.8279 31.8314C66.3611 31.6732 66.8972 31.4828 67.4363 31.2601V34.1957C66.364 34.6703 65.1511 34.9076 63.7976 34.9076C61.8582 34.9076 60.3699 34.3451 59.3328 33.2201C58.3015 32.0951 57.7859 30.4691 57.7859 28.3422C57.7859 27.0121 58.0349 25.8431 58.533 24.8353C59.0369 23.8275 59.7576 23.0541 60.6951 22.515C61.6384 21.9701 62.7458 21.6976 64.0173 21.6976C65.406 21.6976 66.7332 21.9994 67.9988 22.6029L66.9353 25.3363C66.4607 25.1136 65.9861 24.9261 65.5115 24.7738C65.0369 24.6215 64.5271 24.5453 63.9822 24.5453ZM69.95 21.8822H73.0437V27.4017C73.0437 27.9877 72.9968 29.1595 72.9031 30.9174H72.9734L78.0974 21.8822H82.3865V34.7318H79.3103V29.3529C79.3103 28.5385 79.363 27.3197 79.4685 25.6967H79.3982L74.2302 34.7318H69.95V21.8822ZM93.7419 21.8822V24.6859H88.6619V34.7318H85.1726V21.8822H93.7419ZM103.463 34.7318L102.83 32.3236H98.655L98.0046 34.7318H94.1902L98.3826 21.8295H103.014L107.26 34.7318H103.463ZM102.109 29.476L101.555 27.3666C101.427 26.8978 101.268 26.2914 101.081 25.5472C100.899 24.8031 100.779 24.2699 100.72 23.9476C100.668 24.2465 100.562 24.7386 100.404 25.4242C100.252 26.1097 99.9089 27.4603 99.3757 29.476H102.109ZM117.982 25.9691C117.982 27.4047 117.557 28.515 116.708 29.3002C115.864 30.0795 114.663 30.4691 113.104 30.4691H112.129V34.7318H108.657V21.8822H113.104C114.727 21.8822 115.946 22.2367 116.76 22.9457C117.575 23.6547 117.982 24.6625 117.982 25.9691ZM112.129 27.639H112.761C113.283 27.639 113.696 27.4926 114.001 27.1996C114.311 26.9066 114.467 26.5023 114.467 25.9867C114.467 25.1195 113.986 24.6859 113.025 24.6859H112.129V27.639ZM127.659 34.7318H120.03V21.8822H127.659V24.6683H123.502V26.6898H127.351V29.476H123.502V31.9017H127.659V34.7318ZM135.578 34.7318H132.106V24.7211H128.969V21.8822H138.707V24.7211H135.578V34.7318ZM157.243 28.2894C157.243 30.4515 156.713 32.0951 155.652 33.2201C154.592 34.3451 153.039 34.9076 150.994 34.9076C148.978 34.9076 147.431 34.3422 146.353 33.2113C145.281 32.0804 144.745 30.434 144.745 28.2719C144.745 26.1332 145.278 24.5013 146.344 23.3763C147.417 22.2455 148.972 21.6801 151.011 21.6801C153.056 21.6801 154.606 22.2396 155.661 23.3588C156.716 24.4779 157.243 26.1215 157.243 28.2894ZM148.401 28.2894C148.401 30.7738 149.265 32.016 150.994 32.016C151.873 32.016 152.523 31.7142 152.945 31.1107C153.373 30.5072 153.587 29.5668 153.587 28.2894C153.587 27.0062 153.37 26.0599 152.936 25.4506C152.509 24.8353 151.867 24.5277 151.011 24.5277C149.271 24.5277 148.401 25.7816 148.401 28.2894ZM170.093 34.7318H166.594V24.7211H163.052V34.7318H159.563V21.8822H170.093V34.7318ZM178.539 34.7318H175.067V24.7211H171.929V21.8822H181.668V24.7211H178.539V34.7318ZM197.506 25.9691C197.506 27.4047 197.081 28.515 196.231 29.3002C195.387 30.0795 194.186 30.4691 192.628 30.4691H191.652V34.7318H188.18V21.8822H192.628C194.251 21.8822 195.469 22.2367 196.284 22.9457C197.098 23.6547 197.506 24.6625 197.506 25.9691ZM191.652 27.639H192.285C192.806 27.639 193.219 27.4926 193.524 27.1996C193.835 26.9066 193.99 26.5023 193.99 25.9867C193.99 25.1195 193.51 24.6859 192.549 24.6859H191.652V27.639ZM204.537 21.6976H207.885V23.2797H208.14C209.242 23.2797 210.203 23.4818 211.023 23.8861C211.849 24.2904 212.482 24.8588 212.922 25.5912C213.367 26.3236 213.59 27.1556 213.59 28.0873C213.59 29.0599 213.373 29.9125 212.939 30.6449C212.506 31.3715 211.87 31.934 211.032 32.3324C210.194 32.7308 209.18 32.9301 207.991 32.9301H207.885V34.9076H204.537V32.9301H204.361C203.177 32.9301 202.17 32.7367 201.338 32.35C200.511 31.9574 199.887 31.4008 199.466 30.6801C199.044 29.9535 198.833 29.0834 198.833 28.0697C198.833 27.1146 199.055 26.2679 199.501 25.5297C199.952 24.7855 200.579 24.226 201.382 23.851C202.19 23.4701 203.134 23.2797 204.212 23.2797H204.537V21.6976ZM207.885 30.3021H207.991C208.729 30.3021 209.283 30.1205 209.652 29.7572C210.021 29.3939 210.206 28.8314 210.206 28.0697C210.206 27.4017 210.015 26.8802 209.635 26.5052C209.254 26.1244 208.718 25.934 208.026 25.934H207.885V30.3021ZM204.537 25.934H204.335C203.649 25.934 203.125 26.1156 202.761 26.4789C202.398 26.8422 202.217 27.3724 202.217 28.0697C202.217 28.8607 202.392 29.432 202.744 29.7836C203.101 30.1293 203.64 30.3021 204.361 30.3021H204.537V25.934Z" fill="white"/>
<g filter="url(#filter0_i_136:203)">
<path d="M3.32299 34.3266C-1.10766 29.896 -1.10766 22.7125 3.32298 18.2818L18.2818 3.32299C22.7125 -1.10766 29.896 -1.10766 34.3266 3.32298L49.2855 18.2818C53.7161 22.7125 53.7162 29.896 49.2855 34.3266L34.3266 49.2855C29.896 53.7161 22.7125 53.7162 18.2818 49.2855L3.32299 34.3266Z" fill="#D4DFEC"/>
</g>
<g filter="url(#filter1_d_136:203)">
<path d="M7.68004 32.6849C4.10666 29.1116 4.10665 23.318 7.68003 19.7446L19.7446 7.68004C23.318 4.10666 29.1116 4.10665 32.6849 7.68003L44.7495 19.7446C48.3229 23.318 48.3229 29.1116 44.7495 32.6849L32.6849 44.7495C29.1116 48.3229 23.318 48.3229 19.7446 44.7495L7.68004 32.6849Z" fill="#253855"/>
</g>
<path fill-rule="evenodd" clip-rule="evenodd" d="M23.6551 11.4637C23.6636 11.4638 23.6721 11.4638 23.6806 11.4638H25.0988C25.1073 11.4638 25.1158 11.4638 25.1243 11.4637C25.3235 11.4637 25.5171 11.4637 25.6768 11.4851C25.8567 11.5093 26.0621 11.5683 26.2327 11.7389C26.4034 11.9095 26.4623 12.1149 26.4865 12.2949C26.508 12.4546 26.5079 12.6481 26.5079 12.8473C26.5079 12.8558 26.5079 12.8644 26.5079 12.8729V15.4432L31.5429 15.4432C31.7421 15.4432 31.9357 15.4432 32.0953 15.4646C32.2753 15.4888 32.4807 15.5478 32.6513 15.7184C32.8219 15.889 32.8809 16.0944 32.9051 16.2744C32.9266 16.434 32.9265 16.6276 32.9265 16.8268L32.9265 18.4192L33.051 18.4192C33.2502 18.4192 33.4438 18.4191 33.6035 18.4406C33.7835 18.4648 33.9889 18.5237 34.1595 18.6944C34.3301 18.865 34.3891 19.0704 34.4133 19.2504C34.4348 19.41 34.4347 19.6036 34.4347 19.8028L34.4347 30.6544C34.4347 30.9138 34.2244 31.1241 33.965 31.1241C33.7056 31.1241 33.4953 30.9138 33.4953 30.6544V28.6842L26.95 34.456C26.8179 34.5726 26.6878 34.6873 26.5669 34.7694C26.4298 34.8625 26.2568 34.9477 26.0389 34.9482C25.8209 34.9487 25.6476 34.8642 25.51 34.7717C25.3888 34.6902 25.2582 34.576 25.1256 34.46L18.511 28.6782V37.051C18.511 37.2857 18.512 37.4145 18.524 37.5038C18.5241 37.505 18.5243 37.5061 18.5244 37.5073C18.5256 37.5074 18.5267 37.5076 18.5279 37.5077C18.6172 37.5197 18.746 37.5207 18.9807 37.5207H33.0255C33.2602 37.5207 33.389 37.5197 33.4784 37.5077C33.4795 37.5076 33.4807 37.5074 33.4818 37.5073C33.4819 37.5061 33.4821 37.505 33.4822 37.5038C33.4943 37.4145 33.4953 37.2857 33.4953 37.051V32.5576C33.4953 32.2982 33.7056 32.0879 33.965 32.0879C34.2244 32.0879 34.4347 32.2982 34.4347 32.5576L34.4347 37.0766C34.4347 37.2758 34.4348 37.4694 34.4133 37.629C34.3891 37.809 34.3301 38.0144 34.1595 38.185C33.9889 38.3556 33.7835 38.4146 33.6035 38.4388C33.4439 38.4602 33.2503 38.4602 33.0511 38.4602H18.9551C18.7559 38.4602 18.5623 38.4602 18.4027 38.4388C18.2227 38.4146 18.0173 38.3556 17.8467 38.185C17.6761 38.0144 17.6171 37.809 17.5929 37.629C17.5715 37.4694 17.5715 37.2758 17.5715 37.0766L17.5715 26.0174C17.5715 25.758 17.7818 25.5477 18.0413 25.5477C18.3007 25.5477 18.511 25.758 18.511 26.0174V27.4305L25.7263 33.7374C25.8835 33.8748 25.9686 33.948 26.0342 33.9921C26.0351 33.9927 26.0359 33.9933 26.0368 33.9938C26.0376 33.9932 26.0385 33.9927 26.0394 33.9921C26.1048 33.9477 26.1895 33.8741 26.3461 33.736L33.4953 27.4317V22.9921H18.511V24.0796C18.511 24.339 18.3007 24.5493 18.0413 24.5493C17.7818 24.5493 17.5715 24.339 17.5715 24.0796V19.8283C17.5715 19.8198 17.5715 19.8113 17.5715 19.8028C17.5715 19.6036 17.5715 19.41 17.5929 19.2504C17.6171 19.0704 17.6761 18.865 17.8467 18.6944C18.0173 18.5237 18.2227 18.4648 18.4027 18.4406C18.5623 18.4191 18.7559 18.4192 18.9551 18.4192C18.9636 18.4192 18.9722 18.4192 18.9807 18.4192H19.0447V16.8524C19.0447 16.8438 19.0447 16.8353 19.0447 16.8268C19.0446 16.6276 19.0446 16.434 19.066 16.2744C19.0902 16.0944 19.1492 15.889 19.3198 15.7184C19.4904 15.5478 19.6958 15.4888 19.8758 15.4646C20.0355 15.4432 20.2291 15.4432 20.4282 15.4432C20.4368 15.4432 20.4453 15.4432 20.4538 15.4432H22.2715V12.8729C22.2715 12.8644 22.2715 12.8558 22.2715 12.8473C22.2714 12.6481 22.2714 12.4546 22.2929 12.2949C22.3171 12.1149 22.376 11.9095 22.5466 11.7389C22.7173 11.5683 22.9226 11.5093 23.1026 11.4851C23.2623 11.4637 23.4559 11.4637 23.6551 11.4637ZM22.2715 16.3827H20.4538C20.2191 16.3827 20.0903 16.3837 20.001 16.3957C19.9998 16.3958 19.9987 16.396 19.9976 16.3961C19.9974 16.3973 19.9972 16.3984 19.9971 16.3996C19.9851 16.4889 19.9841 16.6177 19.9841 16.8524V18.4196C20.0686 18.4204 20.151 18.4229 20.2251 18.4305C20.3508 18.4436 20.4916 18.4744 20.6302 18.5604C20.7687 18.6464 20.8589 18.7588 20.9264 18.8657C20.9853 18.959 21.0421 19.0736 21.0982 19.1869L21.36 19.7152C21.4272 19.8509 21.4624 19.9206 21.4921 19.9676C21.4926 19.9684 21.493 19.9691 21.4935 19.9698C21.4943 19.9699 21.4952 19.97 21.4961 19.9701C21.5514 19.9758 21.6294 19.9764 21.7809 19.9764H22.2715V16.3827ZM23.2109 19.9764H25.5685V17.663H23.2109V19.9764ZM23.2109 16.7236H25.5685V12.8729C25.5685 12.6382 25.5675 12.5094 25.5555 12.4201C25.5553 12.4189 25.5552 12.4178 25.555 12.4167C25.5539 12.4165 25.5527 12.4163 25.5516 12.4162C25.4622 12.4042 25.3335 12.4032 25.0988 12.4032H23.6806C23.4459 12.4032 23.3172 12.4042 23.2278 12.4162C23.2267 12.4163 23.2255 12.4165 23.2244 12.4167C23.2242 12.4178 23.2241 12.4189 23.2239 12.4201C23.2119 12.5094 23.2109 12.6382 23.2109 12.8729V16.7236ZM26.5079 19.9764H28.7778V16.3827H26.5079V19.9764ZM29.7172 16.3827V19.9764H30.0638C30.1945 19.9764 30.2608 19.9759 30.3082 19.9715C30.309 19.9715 30.3098 19.9714 30.3106 19.9713C30.3111 19.9707 30.3116 19.9701 30.3121 19.9695C30.3422 19.9327 30.3798 19.878 30.453 19.7697L30.9551 19.0266C31.0159 18.9365 31.078 18.8446 31.1392 18.77C31.2094 18.6843 31.2983 18.5956 31.4238 18.529C31.5493 18.4623 31.6726 18.4383 31.7828 18.4281C31.8461 18.4222 31.9158 18.4202 31.9871 18.4195V16.8524C31.9871 16.6177 31.9861 16.4889 31.9741 16.3996C31.9739 16.3984 31.9737 16.3973 31.9736 16.3961C31.9725 16.396 31.9713 16.3958 31.9702 16.3957C31.8808 16.3837 31.7521 16.3827 31.5174 16.3827H29.7172ZM18.511 22.0526H33.4953V19.8283C33.4953 19.5936 33.4943 19.4649 33.4822 19.3755C33.4821 19.3744 33.4819 19.3732 33.4818 19.3721C33.4807 19.372 33.4795 19.3718 33.4783 19.3716C33.389 19.3596 33.2602 19.3586 33.0254 19.3586H32.1139C31.9833 19.3586 31.9169 19.3591 31.8696 19.3635C31.8687 19.3636 31.868 19.3636 31.8672 19.3637C31.8667 19.3643 31.8662 19.3649 31.8657 19.3655C31.8355 19.4023 31.798 19.4571 31.7248 19.5654L31.2227 20.3084C31.1618 20.3985 31.0998 20.4904 31.0386 20.5651C30.9684 20.6507 30.8794 20.7394 30.754 20.806C30.6285 20.8727 30.5052 20.8967 30.3949 20.907C30.2988 20.9159 30.1879 20.9158 30.0792 20.9158H21.7632C21.6368 20.9158 21.509 20.9159 21.3992 20.9045C21.2734 20.8915 21.1327 20.8606 20.9941 20.7746C20.8555 20.6886 20.7654 20.5762 20.6979 20.4693C20.6389 20.376 20.5822 20.2614 20.5261 20.1482L20.2643 19.6198C20.197 19.4841 20.1618 19.4144 20.1321 19.3674C20.1317 19.3667 20.1312 19.3659 20.1307 19.3652C20.1299 19.3651 20.1291 19.365 20.1282 19.3649C20.0728 19.3592 19.9948 19.3586 19.8434 19.3586H18.9807C18.746 19.3586 18.6172 19.3596 18.5279 19.3716C18.5267 19.3718 18.5256 19.372 18.5244 19.3721C18.5243 19.3732 18.5241 19.3744 18.524 19.3755C18.512 19.4649 18.511 19.5936 18.511 19.8283V22.0526ZM23.9192 26.2613C24.398 25.7322 25.1162 25.4093 26.0382 25.4093C26.9602 25.4093 27.6784 25.7322 28.1572 26.2613C28.6292 26.783 28.8328 27.4655 28.8094 28.1275C28.7627 29.4474 27.793 30.8126 26.0382 30.8126C24.2834 30.8126 23.3137 29.4474 23.267 28.1275C23.2436 27.4655 23.4471 26.783 23.9192 26.2613ZM24.2059 28.0943C24.2381 29.0065 24.8818 29.8732 26.0382 29.8732C27.1945 29.8732 27.8383 29.0065 27.8705 28.0943C27.8866 27.6404 27.7459 27.2069 27.4606 26.8916C27.182 26.5837 26.7296 26.3487 26.0382 26.3487C25.3468 26.3487 24.8944 26.5837 24.6158 26.8916C24.3304 27.2069 24.1898 27.6404 24.2059 28.0943Z" fill="white"/>
<path fill-rule="evenodd" clip-rule="evenodd" d="M23.6551 11.4637C23.6636 11.4638 23.6721 11.4638 23.6806 11.4638H25.0988C25.1073 11.4638 25.1158 11.4638 25.1243 11.4637C25.3235 11.4637 25.5171 11.4637 25.6768 11.4851C25.8567 11.5093 26.0621 11.5683 26.2327 11.7389C26.4034 11.9095 26.4623 12.1149 26.4865 12.2949C26.508 12.4546 26.5079 12.6481 26.5079 12.8473C26.5079 12.8558 26.5079 12.8644 26.5079 12.8729V15.4432L31.5429 15.4432C31.7421 15.4432 31.9357 15.4432 32.0953 15.4646C32.2753 15.4888 32.4807 15.5478 32.6513 15.7184C32.8219 15.889 32.8809 16.0944 32.9051 16.2744C32.9266 16.434 32.9265 16.6276 32.9265 16.8268L32.9265 18.4192L33.051 18.4192C33.2502 18.4192 33.4438 18.4191 33.6035 18.4406C33.7835 18.4648 33.9889 18.5237 34.1595 18.6944C34.3301 18.865 34.3891 19.0704 34.4133 19.2504C34.4348 19.41 34.4347 19.6036 34.4347 19.8028L34.4347 30.6544C34.4347 30.9138 34.2244 31.1241 33.965 31.1241C33.7056 31.1241 33.4953 30.9138 33.4953 30.6544V28.6842L26.95 34.456C26.8179 34.5726 26.6878 34.6873 26.5669 34.7694C26.4298 34.8625 26.2568 34.9477 26.0389 34.9482C25.8209 34.9487 25.6476 34.8642 25.51 34.7717C25.3888 34.6902 25.2582 34.576 25.1256 34.46L18.511 28.6782V37.051C18.511 37.2857 18.512 37.4145 18.524 37.5038C18.5241 37.505 18.5243 37.5061 18.5244 37.5073C18.5256 37.5074 18.5267 37.5076 18.5279 37.5077C18.6172 37.5197 18.746 37.5207 18.9807 37.5207H33.0255C33.2602 37.5207 33.389 37.5197 33.4784 37.5077C33.4795 37.5076 33.4807 37.5074 33.4818 37.5073C33.4819 37.5061 33.4821 37.505 33.4822 37.5038C33.4943 37.4145 33.4953 37.2857 33.4953 37.051V32.5576C33.4953 32.2982 33.7056 32.0879 33.965 32.0879C34.2244 32.0879 34.4347 32.2982 34.4347 32.5576L34.4347 37.0766C34.4347 37.2758 34.4348 37.4694 34.4133 37.629C34.3891 37.809 34.3301 38.0144 34.1595 38.185C33.9889 38.3556 33.7835 38.4146 33.6035 38.4388C33.4439 38.4602 33.2503 38.4602 33.0511 38.4602H18.9551C18.7559 38.4602 18.5623 38.4602 18.4027 38.4388C18.2227 38.4146 18.0173 38.3556 17.8467 38.185C17.6761 38.0144 17.6171 37.809 17.5929 37.629C17.5715 37.4694 17.5715 37.2758 17.5715 37.0766L17.5715 26.0174C17.5715 25.758 17.7818 25.5477 18.0413 25.5477C18.3007 25.5477 18.511 25.758 18.511 26.0174V27.4305L25.7263 33.7374C25.8835 33.8748 25.9686 33.948 26.0342 33.9921C26.0351 33.9927 26.0359 33.9933 26.0368 33.9938C26.0376 33.9932 26.0385 33.9927 26.0394 33.9921C26.1048 33.9477 26.1895 33.8741 26.3461 33.736L33.4953 27.4317V22.9921H18.511V24.0796C18.511 24.339 18.3007 24.5493 18.0413 24.5493C17.7818 24.5493 17.5715 24.339 17.5715 24.0796V19.8283C17.5715 19.8198 17.5715 19.8113 17.5715 19.8028C17.5715 19.6036 17.5715 19.41 17.5929 19.2504C17.6171 19.0704 17.6761 18.865 17.8467 18.6944C18.0173 18.5237 18.2227 18.4648 18.4027 18.4406C18.5623 18.4191 18.7559 18.4192 18.9551 18.4192C18.9636 18.4192 18.9722 18.4192 18.9807 18.4192H19.0447V16.8524C19.0447 16.8438 19.0447 16.8353 19.0447 16.8268C19.0446 16.6276 19.0446 16.434 19.066 16.2744C19.0902 16.0944 19.1492 15.889 19.3198 15.7184C19.4904 15.5478 19.6958 15.4888 19.8758 15.4646C20.0355 15.4432 20.2291 15.4432 20.4282 15.4432C20.4368 15.4432 20.4453 15.4432 20.4538 15.4432H22.2715V12.8729C22.2715 12.8644 22.2715 12.8558 22.2715 12.8473C22.2714 12.6481 22.2714 12.4546 22.2929 12.2949C22.3171 12.1149 22.376 11.9095 22.5466 11.7389C22.7173 11.5683 22.9226 11.5093 23.1026 11.4851C23.2623 11.4637 23.4559 11.4637 23.6551 11.4637ZM22.2715 16.3827H20.4538C20.2191 16.3827 20.0903 16.3837 20.001 16.3957C19.9998 16.3958 19.9987 16.396 19.9976 16.3961C19.9974 16.3973 19.9972 16.3984 19.9971 16.3996C19.9851 16.4889 19.9841 16.6177 19.9841 16.8524V18.4196C20.0686 18.4204 20.151 18.4229 20.2251 18.4305C20.3508 18.4436 20.4916 18.4744 20.6302 18.5604C20.7687 18.6464 20.8589 18.7588 20.9264 18.8657C20.9853 18.959 21.0421 19.0736 21.0982 19.1869L21.36 19.7152C21.4272 19.8509 21.4624 19.9206 21.4921 19.9676C21.4926 19.9684 21.493 19.9691 21.4935 19.9698C21.4943 19.9699 21.4952 19.97 21.4961 19.9701C21.5514 19.9758 21.6294 19.9764 21.7809 19.9764H22.2715V16.3827ZM23.2109 19.9764H25.5685V17.663H23.2109V19.9764ZM23.2109 16.7236H25.5685V12.8729C25.5685 12.6382 25.5675 12.5094 25.5555 12.4201C25.5553 12.4189 25.5552 12.4178 25.555 12.4167C25.5539 12.4165 25.5527 12.4163 25.5516 12.4162C25.4622 12.4042 25.3335 12.4032 25.0988 12.4032H23.6806C23.4459 12.4032 23.3172 12.4042 23.2278 12.4162C23.2267 12.4163 23.2255 12.4165 23.2244 12.4167C23.2242 12.4178 23.2241 12.4189 23.2239 12.4201C23.2119 12.5094 23.2109 12.6382 23.2109 12.8729V16.7236ZM26.5079 19.9764H28.7778V16.3827H26.5079V19.9764ZM29.7172 16.3827V19.9764H30.0638C30.1945 19.9764 30.2608 19.9759 30.3082 19.9715C30.309 19.9715 30.3098 19.9714 30.3106 19.9713C30.3111 19.9707 30.3116 19.9701 30.3121 19.9695C30.3422 19.9327 30.3798 19.878 30.453 19.7697L30.9551 19.0266C31.0159 18.9365 31.078 18.8446 31.1392 18.77C31.2094 18.6843 31.2983 18.5956 31.4238 18.529C31.5493 18.4623 31.6726 18.4383 31.7828 18.4281C31.8461 18.4222 31.9158 18.4202 31.9871 18.4195V16.8524C31.9871 16.6177 31.9861 16.4889 31.9741 16.3996C31.9739 16.3984 31.9737 16.3973 31.9736 16.3961C31.9725 16.396 31.9713 16.3958 31.9702 16.3957C31.8808 16.3837 31.7521 16.3827 31.5174 16.3827H29.7172ZM18.511 22.0526H33.4953V19.8283C33.4953 19.5936 33.4943 19.4649 33.4822 19.3755C33.4821 19.3744 33.4819 19.3732 33.4818 19.3721C33.4807 19.372 33.4795 19.3718 33.4783 19.3716C33.389 19.3596 33.2602 19.3586 33.0254 19.3586H32.1139C31.9833 19.3586 31.9169 19.3591 31.8696 19.3635C31.8687 19.3636 31.868 19.3636 31.8672 19.3637C31.8667 19.3643 31.8662 19.3649 31.8657 19.3655C31.8355 19.4023 31.798 19.4571 31.7248 19.5654L31.2227 20.3084C31.1618 20.3985 31.0998 20.4904 31.0386 20.5651C30.9684 20.6507 30.8794 20.7394 30.754 20.806C30.6285 20.8727 30.5052 20.8967 30.3949 20.907C30.2988 20.9159 30.1879 20.9158 30.0792 20.9158H21.7632C21.6368 20.9158 21.509 20.9159 21.3992 20.9045C21.2734 20.8915 21.1327 20.8606 20.9941 20.7746C20.8555 20.6886 20.7654 20.5762 20.6979 20.4693C20.6389 20.376 20.5822 20.2614 20.5261 20.1482L20.2643 19.6198C20.197 19.4841 20.1618 19.4144 20.1321 19.3674C20.1317 19.3667 20.1312 19.3659 20.1307 19.3652C20.1299 19.3651 20.1291 19.365 20.1282 19.3649C20.0728 19.3592 19.9948 19.3586 19.8434 19.3586H18.9807C18.746 19.3586 18.6172 19.3596 18.5279 19.3716C18.5267 19.3718 18.5256 19.372 18.5244 19.3721C18.5243 19.3732 18.5241 19.3744 18.524 19.3755C18.512 19.4649 18.511 19.5936 18.511 19.8283V22.0526ZM23.9192 26.2613C24.398 25.7322 25.1162 25.4093 26.0382 25.4093C26.9602 25.4093 27.6784 25.7322 28.1572 26.2613C28.6292 26.783 28.8328 27.4655 28.8094 28.1275C28.7627 29.4474 27.793 30.8126 26.0382 30.8126C24.2834 30.8126 23.3137 29.4474 23.267 28.1275C23.2436 27.4655 23.4471 26.783 23.9192 26.2613ZM24.2059 28.0943C24.2381 29.0065 24.8818 29.8732 26.0382 29.8732C27.1945 29.8732 27.8383 29.0065 27.8705 28.0943C27.8866 27.6404 27.7459 27.2069 27.4606 26.8916C27.182 26.5837 26.7296 26.3487 26.0382 26.3487C25.3468 26.3487 24.8944 26.5837 24.6158 26.8916C24.3304 27.2069 24.1898 27.6404 24.2059 28.0943Z" fill="url(#paint0_linear_136:203)"/>
<defs>
<filter id="filter0_i_136:203" x="0" y="0" width="53.6202" height="53.4179" filterUnits="userSpaceOnUse" color-interpolation-filters="sRGB">
<feFlood flood-opacity="0" result="BackgroundImageFix"/>
<feBlend mode="normal" in="SourceGraphic" in2="BackgroundImageFix" result="shape"/>
<feColorMatrix in="SourceAlpha" type="matrix" values="0 0 0 0 0 0 0 0 0 0 0 0 0 0 0 0 0 0 127 0" result="hardAlpha"/>
<feOffset dx="1.0117" dy="0.809361"/>
<feGaussianBlur stdDeviation="0.505851"/>
<feComposite in2="hardAlpha" operator="arithmetic" k2="-1" k3="1"/>
<feColorMatrix type="matrix" values="0 0 0 0 0.561823 0 0 0 0 0.605427 0 0 0 0 0.670833 0 0 0 1 0"/>
<feBlend mode="normal" in2="shape" result="effect1_innerShadow_136:203"/>
</filter>
<filter id="filter1_d_136:203" x="5" y="5" width="43.8459" height="43.8459" filterUnits="userSpaceOnUse" color-interpolation-filters="sRGB">
<feFlood flood-opacity="0" result="BackgroundImageFix"/>
<feColorMatrix in="SourceAlpha" type="matrix" values="0 0 0 0 0 0 0 0 0 0 0 0 0 0 0 0 0 0 127 0" result="hardAlpha"/>
<feOffset dx="0.809361" dy="0.809361"/>
<feGaussianBlur stdDeviation="0.303511"/>
<feColorMatrix type="matrix" values="0 0 0 0 0.659531 0 0 0 0 0.710719 0 0 0 0 0.7875 0 0 0 1 0"/>
<feBlend mode="normal" in2="BackgroundImageFix" result="effect1_dropShadow_136:203"/>
<feBlend mode="normal" in="SourceGraphic" in2="effect1_dropShadow_136:203" result="shape"/>
</filter>
<linearGradient id="paint0_linear_136:203" x1="20.3497" y1="14.0006" x2="43.0435" y2="43.0276" gradientUnits="userSpaceOnUse">
<stop stop-color="white"/>
<stop offset="1" stop-color="#4067A0"/>
</linearGradient>
</defs>
</svg>
