<svg width="215" height="53" viewBox="0 0 215 53" fill="none" xmlns="http://www.w3.org/2000/svg">
<path d="M63.9824 24.5453C63.1562 24.5453 62.5117 24.8851 62.0488 25.5648C61.5859 26.2386 61.3544 27.1703 61.3544 28.3597C61.3544 30.8324 62.2949 32.0687 64.1757 32.0687C64.7441 32.0687 65.2949 31.9896 65.8281 31.8314C66.3613 31.6732 66.8974 31.4828 67.4365 31.2601V34.1957C66.3642 34.6703 65.1513 34.9076 63.7978 34.9076C61.8584 34.9076 60.3701 34.3451 59.333 33.2201C58.3017 32.0951 57.7861 30.4691 57.7861 28.3422C57.7861 27.0121 58.0351 25.8431 58.5332 24.8353C59.0371 23.8275 59.7578 23.0541 60.6953 22.515C61.6386 21.9701 62.746 21.6976 64.0175 21.6976C65.4062 21.6976 66.7334 21.9994 67.999 22.6029L66.9355 25.3363C66.4609 25.1136 65.9863 24.9261 65.5117 24.7738C65.0371 24.6215 64.5273 24.5453 63.9824 24.5453Z" fill="white"/>
<path d="M69.9502 21.8822H73.0439V27.4017C73.0439 27.9877 72.997 29.1595 72.9033 30.9174H72.9736L78.0976 21.8822H82.3867V34.7318H79.3105V29.3529C79.3105 28.5385 79.3632 27.3197 79.4687 25.6967H79.3984L74.2304 34.7318H69.9502V21.8822Z" fill="white"/>
<path d="M93.7421 21.8822V24.6859H88.6622V34.7318H85.1729V21.8822H93.7421Z" fill="white"/>
<path d="M103.463 34.7318L102.83 32.3236H98.6552L98.0048 34.7318H94.1904L98.3828 21.8295H103.014L107.26 34.7318H103.463ZM102.109 29.476L101.555 27.3666C101.427 26.8978 101.268 26.2914 101.081 25.5472C100.899 24.8031 100.779 24.2699 100.72 23.9476C100.668 24.2465 100.562 24.7386 100.404 25.4242C100.252 26.1097 99.9091 27.4603 99.3759 29.476H102.109Z" fill="white"/>
<path d="M117.982 25.9691C117.982 27.4047 117.557 28.515 116.708 29.3002C115.864 30.0795 114.663 30.4691 113.104 30.4691H112.129V34.7318H108.657V21.8822H113.104C114.727 21.8822 115.946 22.2367 116.76 22.9457C117.575 23.6547 117.982 24.6625 117.982 25.9691ZM112.129 27.639H112.761C113.283 27.639 113.696 27.4926 114.001 27.1996C114.311 26.9066 114.467 26.5023 114.467 25.9867C114.467 25.1195 113.986 24.6859 113.025 24.6859H112.129V27.639Z" fill="white"/>
<path d="M127.659 34.7318H120.03V21.8822H127.659V24.6683H123.502V26.6898H127.351V29.476H123.502V31.9017H127.659V34.7318Z" fill="white"/>
<path d="M135.578 34.7318H132.106V24.7211H128.969V21.8822H138.707V24.7211H135.578V34.7318Z" fill="white"/>
<path d="M157.243 28.2894C157.243 30.4515 156.713 32.0951 155.652 33.2201C154.592 34.3451 153.039 34.9076 150.994 34.9076C148.978 34.9076 147.431 34.3422 146.353 33.2113C145.281 32.0804 144.745 30.434 144.745 28.2719C144.745 26.1332 145.278 24.5013 146.344 23.3763C147.417 22.2455 148.972 21.6801 151.011 21.6801C153.056 21.6801 154.606 22.2396 155.661 23.3588C156.716 24.4779 157.243 26.1215 157.243 28.2894ZM148.401 28.2894C148.401 30.7738 149.265 32.016 150.994 32.016C151.873 32.016 152.523 31.7142 152.945 31.1107C153.373 30.5072 153.587 29.5668 153.587 28.2894C153.587 27.0062 153.37 26.0599 152.936 25.4506C152.509 24.8353 151.867 24.5277 151.011 24.5277C149.271 24.5277 148.401 25.7816 148.401 28.2894Z" fill="white"/>
<path d="M170.093 34.7318H166.594V24.7211H163.052V34.7318H159.563V21.8822H170.093V34.7318Z" fill="white"/>
<path d="M178.539 34.7318H175.067V24.7211H171.929V21.8822H181.668V24.7211H178.539V34.7318Z" fill="white"/>
<path d="M197.506 25.9691C197.506 27.4047 197.081 28.515 196.231 29.3002C195.387 30.0795 194.186 30.4691 192.628 30.4691H191.652V34.7318H188.18V21.8822H192.628C194.251 21.8822 195.469 22.2367 196.284 22.9457C197.098 23.6547 197.506 24.6625 197.506 25.9691ZM191.652 27.639H192.285C192.806 27.639 193.219 27.4926 193.524 27.1996C193.835 26.9066 193.99 26.5023 193.99 25.9867C193.99 25.1195 193.51 24.6859 192.549 24.6859H191.652V27.639Z" fill="white"/>
<path d="M204.537 21.6976H207.885V23.2797H208.14C209.242 23.2797 210.203 23.4818 211.023 23.8861C211.849 24.2904 212.482 24.8588 212.922 25.5912C213.367 26.3236 213.59 27.1556 213.59 28.0873C213.59 29.0599 213.373 29.9125 212.939 30.6449C212.506 31.3715 211.87 31.934 211.032 32.3324C210.194 32.7308 209.18 32.9301 207.991 32.9301H207.885V34.9076H204.537V32.9301H204.361C203.177 32.9301 202.17 32.7367 201.338 32.35C200.511 31.9574 199.887 31.4008 199.466 30.6801C199.044 29.9535 198.833 29.0834 198.833 28.0697C198.833 27.1146 199.055 26.2679 199.501 25.5297C199.952 24.7855 200.579 24.226 201.382 23.851C202.19 23.4701 203.134 23.2797 204.212 23.2797H204.537V21.6976ZM207.885 30.3021H207.991C208.729 30.3021 209.283 30.1205 209.652 29.7572C210.021 29.3939 210.206 28.8314 210.206 28.0697C210.206 27.4017 210.015 26.8802 209.635 26.5052C209.254 26.1244 208.718 25.934 208.026 25.934H207.885V30.3021ZM204.537 25.934H204.335C203.649 25.934 203.125 26.1156 202.761 26.4789C202.398 26.8422 202.217 27.3724 202.217 28.0697C202.217 28.8607 202.392 29.432 202.744 29.7836C203.101 30.1293 203.64 30.3021 204.361 30.3021H204.537V25.934Z" fill="white"/>
<path d="M3.32299 34.3266C-1.10766 29.896 -1.10766 22.7125 3.32298 18.2818L18.2818 3.32299C22.7125 -1.10766 29.896 -1.10766 34.3266 3.32298L49.2855 18.2818C53.7161 22.7125 53.7162 29.896 49.2855 34.3266L34.3266 49.2855C29.896 53.7161 22.7125 53.7162 18.2818 49.2855L3.32299 34.3266Z" fill="#D4DFEC"/>
<path d="M7.68004 32.6849C4.10666 29.1116 4.10665 23.318 7.68003 19.7446L19.7446 7.68004C23.318 4.10666 29.1116 4.10665 32.6849 7.68003L44.7495 19.7446C48.3229 23.318 48.3229 29.1116 44.7495 32.6849L32.6849 44.7495C29.1116 48.3229 23.318 48.3229 19.7446 44.7495L7.68004 32.6849Z" fill="#253855"/>
<path fill-rule="evenodd" clip-rule="evenodd" d="M23.6549 11.4637C23.6634 11.4638 23.6719 11.4638 23.6804 11.4638H25.0986C25.1071 11.4638 25.1156 11.4638 25.1241 11.4637C25.3233 11.4637 25.5169 11.4637 25.6766 11.4851C25.8565 11.5093 26.0619 11.5683 26.2325 11.7389C26.4032 11.9095 26.4621 12.1149 26.4863 12.2949C26.5078 12.4546 26.5077 12.6481 26.5077 12.8473C26.5077 12.8558 26.5077 12.8644 26.5077 12.8729V15.4432H31.5427C31.7419 15.4432 31.9355 15.4432 32.0951 15.4646C32.2751 15.4888 32.4805 15.5478 32.6511 15.7184C32.8217 15.889 32.8807 16.0944 32.9049 16.2744C32.9264 16.434 32.9263 16.6276 32.9263 16.8268V18.4192H33.0508C33.25 18.4192 33.4436 18.4191 33.6033 18.4406C33.7833 18.4648 33.9887 18.5237 34.1593 18.6944C34.3299 18.865 34.3889 19.0704 34.4131 19.2504C34.4346 19.41 34.4345 19.6036 34.4345 19.8028V30.6544C34.4345 30.9138 34.2242 31.1241 33.9648 31.1241C33.7054 31.1241 33.4951 30.9138 33.4951 30.6544V28.6842L26.9498 34.456C26.8177 34.5726 26.6876 34.6873 26.5667 34.7694C26.4296 34.8625 26.2566 34.9477 26.0387 34.9482C25.8207 34.9487 25.6474 34.8642 25.5098 34.7717C25.3886 34.6902 25.258 34.576 25.1254 34.46L18.5108 28.6782V37.051C18.5108 37.2857 18.5118 37.4145 18.5238 37.5038C18.5239 37.505 18.5241 37.5061 18.5242 37.5073C18.5254 37.5074 18.5265 37.5076 18.5277 37.5077C18.617 37.5197 18.7458 37.5207 18.9805 37.5207H33.0253C33.26 37.5207 33.3888 37.5197 33.4782 37.5077C33.4793 37.5076 33.4805 37.5074 33.4816 37.5073C33.4817 37.5061 33.4819 37.505 33.482 37.5038C33.4941 37.4145 33.4951 37.2857 33.4951 37.051V32.5576C33.4951 32.2982 33.7054 32.0879 33.9648 32.0879C34.2242 32.0879 34.4345 32.2982 34.4345 32.5576V37.0766C34.4345 37.2758 34.4346 37.4694 34.4131 37.629C34.3889 37.809 34.3299 38.0144 34.1593 38.185C33.9887 38.3556 33.7833 38.4146 33.6033 38.4388C33.4437 38.4602 33.2501 38.4602 33.0509 38.4602H18.9549C18.7557 38.4602 18.5621 38.4602 18.4025 38.4388C18.2225 38.4146 18.0171 38.3556 17.8465 38.185C17.6759 38.0144 17.6169 37.809 17.5927 37.629C17.5713 37.4694 17.5713 37.2758 17.5713 37.0766V26.0174C17.5713 25.758 17.7816 25.5477 18.0411 25.5477C18.3005 25.5477 18.5108 25.758 18.5108 26.0174V27.4305L25.7261 33.7374C25.8833 33.8748 25.9684 33.948 26.034 33.9921C26.0349 33.9927 26.0357 33.9933 26.0366 33.9938C26.0374 33.9932 26.0383 33.9927 26.0392 33.9921C26.1046 33.9477 26.1893 33.8741 26.3459 33.736L33.4951 27.4317V22.9921H18.5108V24.0796C18.5108 24.339 18.3005 24.5493 18.0411 24.5493C17.7816 24.5493 17.5713 24.339 17.5713 24.0796V19.8283C17.5713 19.8198 17.5713 19.8113 17.5713 19.8028C17.5713 19.6036 17.5713 19.41 17.5927 19.2504C17.6169 19.0704 17.6759 18.865 17.8465 18.6944C18.0171 18.5237 18.2225 18.4648 18.4025 18.4406C18.5621 18.4191 18.7557 18.4192 18.9549 18.4192C18.9634 18.4192 18.972 18.4192 18.9805 18.4192H19.0445V16.8524C19.0445 16.8438 19.0445 16.8353 19.0445 16.8268C19.0444 16.6276 19.0444 16.434 19.0658 16.2744C19.09 16.0944 19.149 15.889 19.3196 15.7184C19.4902 15.5478 19.6956 15.4888 19.8756 15.4646C20.0353 15.4432 20.2289 15.4432 20.428 15.4432C20.4366 15.4432 20.4451 15.4432 20.4536 15.4432H22.2713V12.8729C22.2713 12.8644 22.2713 12.8558 22.2713 12.8473C22.2712 12.6481 22.2712 12.4546 22.2927 12.2949C22.3169 12.1149 22.3758 11.9095 22.5464 11.7389C22.7171 11.5683 22.9224 11.5093 23.1024 11.4851C23.2621 11.4637 23.4557 11.4637 23.6549 11.4637ZM22.2713 16.3827H20.4536C20.2189 16.3827 20.0901 16.3837 20.0008 16.3957C19.9996 16.3958 19.9985 16.396 19.9974 16.3961C19.9972 16.3973 19.997 16.3984 19.9969 16.3996C19.9849 16.4889 19.9839 16.6177 19.9839 16.8524V18.4196C20.0684 18.4204 20.1508 18.4229 20.2249 18.4305C20.3506 18.4436 20.4914 18.4744 20.63 18.5604C20.7685 18.6464 20.8587 18.7588 20.9262 18.8657C20.9851 18.959 21.0419 19.0736 21.098 19.1869L21.3598 19.7152C21.427 19.8509 21.4622 19.9206 21.4919 19.9676C21.4924 19.9684 21.4928 19.9691 21.4933 19.9698C21.4941 19.9699 21.495 19.97 21.4959 19.9701C21.5512 19.9758 21.6292 19.9764 21.7807 19.9764H22.2713V16.3827ZM23.2107 19.9764H25.5683V17.663H23.2107V19.9764ZM23.2107 16.7236H25.5683V12.8729C25.5683 12.6382 25.5673 12.5094 25.5553 12.4201C25.5551 12.4189 25.555 12.4178 25.5548 12.4167C25.5537 12.4165 25.5525 12.4163 25.5514 12.4162C25.462 12.4042 25.3333 12.4032 25.0986 12.4032H23.6804C23.4457 12.4032 23.317 12.4042 23.2276 12.4162C23.2265 12.4163 23.2253 12.4165 23.2242 12.4167C23.224 12.4178 23.2239 12.4189 23.2237 12.4201C23.2117 12.5094 23.2107 12.6382 23.2107 12.8729V16.7236ZM26.5077 19.9764H28.7776V16.3827H26.5077V19.9764ZM29.717 16.3827V19.9764H30.0636C30.1943 19.9764 30.2606 19.9759 30.308 19.9715C30.3088 19.9715 30.3096 19.9714 30.3104 19.9713C30.3109 19.9707 30.3114 19.9701 30.3119 19.9695C30.342 19.9327 30.3796 19.878 30.4528 19.7697L30.9549 19.0266C31.0157 18.9365 31.0778 18.8446 31.139 18.77C31.2092 18.6843 31.2981 18.5956 31.4236 18.529C31.5491 18.4623 31.6724 18.4383 31.7826 18.4281C31.8459 18.4222 31.9156 18.4202 31.9869 18.4195V16.8524C31.9869 16.6177 31.9859 16.4889 31.9739 16.3996C31.9737 16.3984 31.9735 16.3973 31.9734 16.3961C31.9723 16.396 31.9711 16.3958 31.97 16.3957C31.8806 16.3837 31.7519 16.3827 31.5172 16.3827H29.717ZM18.5108 22.0526H33.4951V19.8283C33.4951 19.5936 33.4941 19.4649 33.482 19.3755C33.4819 19.3744 33.4817 19.3732 33.4816 19.3721C33.4805 19.372 33.4793 19.3718 33.4781 19.3716C33.3888 19.3596 33.26 19.3586 33.0252 19.3586H32.1137C31.9831 19.3586 31.9167 19.3591 31.8694 19.3635C31.8685 19.3636 31.8678 19.3636 31.867 19.3637C31.8665 19.3643 31.866 19.3649 31.8655 19.3655C31.8353 19.4023 31.7978 19.4571 31.7246 19.5654L31.2225 20.3084C31.1616 20.3985 31.0996 20.4904 31.0384 20.5651C30.9682 20.6507 30.8792 20.7394 30.7538 20.806C30.6283 20.8727 30.505 20.8967 30.3947 20.907C30.2986 20.9159 30.1877 20.9158 30.079 20.9158H21.763C21.6366 20.9158 21.5088 20.9159 21.399 20.9045C21.2732 20.8915 21.1325 20.8606 20.9939 20.7746C20.8553 20.6886 20.7652 20.5762 20.6977 20.4693C20.6387 20.376 20.582 20.2614 20.5259 20.1482L20.2641 19.6198C20.1968 19.4841 20.1616 19.4144 20.1319 19.3674C20.1315 19.3667 20.131 19.3659 20.1305 19.3652C20.1297 19.3651 20.1289 19.365 20.128 19.3649C20.0726 19.3592 19.9946 19.3586 19.8432 19.3586H18.9805C18.7458 19.3586 18.617 19.3596 18.5277 19.3716C18.5265 19.3718 18.5254 19.372 18.5242 19.3721C18.5241 19.3732 18.5239 19.3744 18.5238 19.3755C18.5118 19.4649 18.5108 19.5936 18.5108 19.8283V22.0526ZM23.919 26.2613C24.3978 25.7322 25.116 25.4093 26.038 25.4093C26.96 25.4093 27.6782 25.7322 28.157 26.2613C28.629 26.783 28.8326 27.4655 28.8092 28.1275C28.7625 29.4474 27.7928 30.8126 26.038 30.8126C24.2832 30.8126 23.3135 29.4474 23.2668 28.1275C23.2434 27.4655 23.4469 26.783 23.919 26.2613ZM24.2057 28.0943C24.2379 29.0065 24.8816 29.8732 26.038 29.8732C27.1943 29.8732 27.8381 29.0065 27.8703 28.0943C27.8864 27.6404 27.7457 27.2069 27.4604 26.8916C27.1818 26.5837 26.7294 26.3487 26.038 26.3487C25.3466 26.3487 24.8942 26.5837 24.6156 26.8916C24.3302 27.2069 24.1896 27.6404 24.2057 28.0943Z" fill="white"/>
<path fill-rule="evenodd" clip-rule="evenodd" d="M23.6549 11.4637C23.6634 11.4638 23.6719 11.4638 23.6804 11.4638H25.0986C25.1071 11.4638 25.1156 11.4638 25.1241 11.4637C25.3233 11.4637 25.5169 11.4637 25.6766 11.4851C25.8565 11.5093 26.0619 11.5683 26.2325 11.7389C26.4032 11.9095 26.4621 12.1149 26.4863 12.2949C26.5078 12.4546 26.5077 12.6481 26.5077 12.8473C26.5077 12.8558 26.5077 12.8644 26.5077 12.8729V15.4432H31.5427C31.7419 15.4432 31.9355 15.4432 32.0951 15.4646C32.2751 15.4888 32.4805 15.5478 32.6511 15.7184C32.8217 15.889 32.8807 16.0944 32.9049 16.2744C32.9264 16.434 32.9263 16.6276 32.9263 16.8268V18.4192H33.0508C33.25 18.4192 33.4436 18.4191 33.6033 18.4406C33.7833 18.4648 33.9887 18.5237 34.1593 18.6944C34.3299 18.865 34.3889 19.0704 34.4131 19.2504C34.4346 19.41 34.4345 19.6036 34.4345 19.8028V30.6544C34.4345 30.9138 34.2242 31.1241 33.9648 31.1241C33.7054 31.1241 33.4951 30.9138 33.4951 30.6544V28.6842L26.9498 34.456C26.8177 34.5726 26.6876 34.6873 26.5667 34.7694C26.4296 34.8625 26.2566 34.9477 26.0387 34.9482C25.8207 34.9487 25.6474 34.8642 25.5098 34.7717C25.3886 34.6902 25.258 34.576 25.1254 34.46L18.5108 28.6782V37.051C18.5108 37.2857 18.5118 37.4145 18.5238 37.5038C18.5239 37.505 18.5241 37.5061 18.5242 37.5073C18.5254 37.5074 18.5265 37.5076 18.5277 37.5077C18.617 37.5197 18.7458 37.5207 18.9805 37.5207H33.0253C33.26 37.5207 33.3888 37.5197 33.4782 37.5077C33.4793 37.5076 33.4805 37.5074 33.4816 37.5073C33.4817 37.5061 33.4819 37.505 33.482 37.5038C33.4941 37.4145 33.4951 37.2857 33.4951 37.051V32.5576C33.4951 32.2982 33.7054 32.0879 33.9648 32.0879C34.2242 32.0879 34.4345 32.2982 34.4345 32.5576V37.0766C34.4345 37.2758 34.4346 37.4694 34.4131 37.629C34.3889 37.809 34.3299 38.0144 34.1593 38.185C33.9887 38.3556 33.7833 38.4146 33.6033 38.4388C33.4437 38.4602 33.2501 38.4602 33.0509 38.4602H18.9549C18.7557 38.4602 18.5621 38.4602 18.4025 38.4388C18.2225 38.4146 18.0171 38.3556 17.8465 38.185C17.6759 38.0144 17.6169 37.809 17.5927 37.629C17.5713 37.4694 17.5713 37.2758 17.5713 37.0766V26.0174C17.5713 25.758 17.7816 25.5477 18.0411 25.5477C18.3005 25.5477 18.5108 25.758 18.5108 26.0174V27.4305L25.7261 33.7374C25.8833 33.8748 25.9684 33.948 26.034 33.9921C26.0349 33.9927 26.0357 33.9933 26.0366 33.9938C26.0374 33.9932 26.0383 33.9927 26.0392 33.9921C26.1046 33.9477 26.1893 33.8741 26.3459 33.736L33.4951 27.4317V22.9921H18.5108V24.0796C18.5108 24.339 18.3005 24.5493 18.0411 24.5493C17.7816 24.5493 17.5713 24.339 17.5713 24.0796V19.8283C17.5713 19.8198 17.5713 19.8113 17.5713 19.8028C17.5713 19.6036 17.5713 19.41 17.5927 19.2504C17.6169 19.0704 17.6759 18.865 17.8465 18.6944C18.0171 18.5237 18.2225 18.4648 18.4025 18.4406C18.5621 18.4191 18.7557 18.4192 18.9549 18.4192C18.9634 18.4192 18.972 18.4192 18.9805 18.4192H19.0445V16.8524C19.0445 16.8438 19.0445 16.8353 19.0445 16.8268C19.0444 16.6276 19.0444 16.434 19.0658 16.2744C19.09 16.0944 19.149 15.889 19.3196 15.7184C19.4902 15.5478 19.6956 15.4888 19.8756 15.4646C20.0353 15.4432 20.2289 15.4432 20.428 15.4432C20.4366 15.4432 20.4451 15.4432 20.4536 15.4432H22.2713V12.8729C22.2713 12.8644 22.2713 12.8558 22.2713 12.8473C22.2712 12.6481 22.2712 12.4546 22.2927 12.2949C22.3169 12.1149 22.3758 11.9095 22.5464 11.7389C22.7171 11.5683 22.9224 11.5093 23.1024 11.4851C23.2621 11.4637 23.4557 11.4637 23.6549 11.4637ZM22.2713 16.3827H20.4536C20.2189 16.3827 20.0901 16.3837 20.0008 16.3957C19.9996 16.3958 19.9985 16.396 19.9974 16.3961C19.9972 16.3973 19.997 16.3984 19.9969 16.3996C19.9849 16.4889 19.9839 16.6177 19.9839 16.8524V18.4196C20.0684 18.4204 20.1508 18.4229 20.2249 18.4305C20.3506 18.4436 20.4914 18.4744 20.63 18.5604C20.7685 18.6464 20.8587 18.7588 20.9262 18.8657C20.9851 18.959 21.0419 19.0736 21.098 19.1869L21.3598 19.7152C21.427 19.8509 21.4622 19.9206 21.4919 19.9676C21.4924 19.9684 21.4928 19.9691 21.4933 19.9698C21.4941 19.9699 21.495 19.97 21.4959 19.9701C21.5512 19.9758 21.6292 19.9764 21.7807 19.9764H22.2713V16.3827ZM23.2107 19.9764H25.5683V17.663H23.2107V19.9764ZM23.2107 16.7236H25.5683V12.8729C25.5683 12.6382 25.5673 12.5094 25.5553 12.4201C25.5551 12.4189 25.555 12.4178 25.5548 12.4167C25.5537 12.4165 25.5525 12.4163 25.5514 12.4162C25.462 12.4042 25.3333 12.4032 25.0986 12.4032H23.6804C23.4457 12.4032 23.317 12.4042 23.2276 12.4162C23.2265 12.4163 23.2253 12.4165 23.2242 12.4167C23.224 12.4178 23.2239 12.4189 23.2237 12.4201C23.2117 12.5094 23.2107 12.6382 23.2107 12.8729V16.7236ZM26.5077 19.9764H28.7776V16.3827H26.5077V19.9764ZM29.717 16.3827V19.9764H30.0636C30.1943 19.9764 30.2606 19.9759 30.308 19.9715C30.3088 19.9715 30.3096 19.9714 30.3104 19.9713C30.3109 19.9707 30.3114 19.9701 30.3119 19.9695C30.342 19.9327 30.3796 19.878 30.4528 19.7697L30.9549 19.0266C31.0157 18.9365 31.0778 18.8446 31.139 18.77C31.2092 18.6843 31.2981 18.5956 31.4236 18.529C31.5491 18.4623 31.6724 18.4383 31.7826 18.4281C31.8459 18.4222 31.9156 18.4202 31.9869 18.4195V16.8524C31.9869 16.6177 31.9859 16.4889 31.9739 16.3996C31.9737 16.3984 31.9735 16.3973 31.9734 16.3961C31.9723 16.396 31.9711 16.3958 31.97 16.3957C31.8806 16.3837 31.7519 16.3827 31.5172 16.3827H29.717ZM18.5108 22.0526H33.4951V19.8283C33.4951 19.5936 33.4941 19.4649 33.482 19.3755C33.4819 19.3744 33.4817 19.3732 33.4816 19.3721C33.4805 19.372 33.4793 19.3718 33.4781 19.3716C33.3888 19.3596 33.26 19.3586 33.0252 19.3586H32.1137C31.9831 19.3586 31.9167 19.3591 31.8694 19.3635C31.8685 19.3636 31.8678 19.3636 31.867 19.3637C31.8665 19.3643 31.866 19.3649 31.8655 19.3655C31.8353 19.4023 31.7978 19.4571 31.7246 19.5654L31.2225 20.3084C31.1616 20.3985 31.0996 20.4904 31.0384 20.5651C30.9682 20.6507 30.8792 20.7394 30.7538 20.806C30.6283 20.8727 30.505 20.8967 30.3947 20.907C30.2986 20.9159 30.1877 20.9158 30.079 20.9158H21.763C21.6366 20.9158 21.5088 20.9159 21.399 20.9045C21.2732 20.8915 21.1325 20.8606 20.9939 20.7746C20.8553 20.6886 20.7652 20.5762 20.6977 20.4693C20.6387 20.376 20.582 20.2614 20.5259 20.1482L20.2641 19.6198C20.1968 19.4841 20.1616 19.4144 20.1319 19.3674C20.1315 19.3667 20.131 19.3659 20.1305 19.3652C20.1297 19.3651 20.1289 19.365 20.128 19.3649C20.0726 19.3592 19.9946 19.3586 19.8432 19.3586H18.9805C18.7458 19.3586 18.617 19.3596 18.5277 19.3716C18.5265 19.3718 18.5254 19.372 18.5242 19.3721C18.5241 19.3732 18.5239 19.3744 18.5238 19.3755C18.5118 19.4649 18.5108 19.5936 18.5108 19.8283V22.0526ZM23.919 26.2613C24.3978 25.7322 25.116 25.4093 26.038 25.4093C26.96 25.4093 27.6782 25.7322 28.157 26.2613C28.629 26.783 28.8326 27.4655 28.8092 28.1275C28.7625 29.4474 27.7928 30.8126 26.038 30.8126C24.2832 30.8126 23.3135 29.4474 23.2668 28.1275C23.2434 27.4655 23.4469 26.783 23.919 26.2613ZM24.2057 28.0943C24.2379 29.0065 24.8816 29.8732 26.038 29.8732C27.1943 29.8732 27.8381 29.0065 27.8703 28.0943C27.8864 27.6404 27.7457 27.2069 27.4604 26.8916C27.1818 26.5837 26.7294 26.3487 26.038 26.3487C25.3466 26.3487 24.8942 26.5837 24.6156 26.8916C24.3302 27.2069 24.1896 27.6404 24.2057 28.0943Z" fill="url(#paint0_linear_144:719)"/>
<defs>
<linearGradient id="paint0_linear_144:719" x1="20.3495" y1="14.0006" x2="43.0433" y2="43.0276" gradientUnits="userSpaceOnUse">
<stop stop-color="white"/>
<stop offset="1" stop-color="#4067A0"/>
</linearGradient>
</defs>
</svg>
