<svg width="60" height="60" viewBox="0 0 60 60" fill="none" xmlns="http://www.w3.org/2000/svg">
<path d="M29.8782 59.7564C46.3795 59.7564 59.7564 46.3795 59.7564 29.8782C59.7564 13.3769 46.3795 0 29.8782 0C13.3769 0 0 13.3769 0 29.8782C0 46.3795 13.3769 59.7564 29.8782 59.7564Z" fill="#495764"/>
<path d="M53.3153 29.8782C53.3153 42.8221 42.8222 53.3153 29.8783 53.3153C16.9343 53.3153 6.44116 42.8221 6.44116 29.8782C6.44116 16.9342 16.9343 6.4411 29.8783 6.4411C42.8222 6.4411 53.3153 16.9342 53.3153 29.8782Z" fill="#9AA9BC"/>
<path d="M48.889 29.8782C48.889 40.3777 40.3776 48.8892 29.8781 48.8892C19.3787 48.8892 10.8672 40.3777 10.8672 29.8782C10.8672 19.3788 19.3787 10.8673 29.8781 10.8673C40.3776 10.8673 48.889 19.3788 48.889 29.8782Z" fill="#253855"/>
<g style="mix-blend-mode:screen" filter="url(#filter0_f_144:841)">
<g style="mix-blend-mode:screen">
<path fill-rule="evenodd" clip-rule="evenodd" d="M35.0389 15.1789C34.5704 14.7456 34.1598 14.5582 33.858 14.6837C33.6991 14.7499 33.5804 14.8985 33.5004 15.1176C34.0132 15.0681 34.5297 15.0904 35.0389 15.1789ZM39.3552 27.8965C39.1964 27.9627 39.0073 27.942 38.7956 27.8444C39.1921 27.5157 39.5403 27.1337 39.8364 26.7101C39.8134 27.3478 39.657 27.771 39.3552 27.8965Z" fill="#59A0E2"/>
</g>
<g style="mix-blend-mode:screen">
<path d="M28.9203 24.4881C30.4339 28.126 34.2305 30.006 37.4004 28.6872C37.9151 28.473 38.3816 28.1877 38.7955 27.8444C39.192 27.5157 39.5402 27.1337 39.8363 26.7101C41.1352 24.8522 41.4318 22.1937 40.3994 19.7122C39.367 17.2308 37.2723 15.5672 35.0388 15.1789C34.5296 15.0904 34.0131 15.0681 33.5003 15.1176C32.9651 15.1693 32.4339 15.2991 31.9193 15.5132C28.7494 16.832 27.4067 20.8502 28.9203 24.4881Z" fill="#59A0E2"/>
</g>
</g>
<path d="M28.5857 31.1055C29.5562 32.09 30.7305 32.8501 32.026 33.3324L33.7787 31.9377C33.8307 31.9019 33.8923 31.8827 33.9554 31.8827C34.0185 31.8827 34.0801 31.9019 34.132 31.9377L37.3864 34.0344C37.5099 34.1087 37.6145 34.2107 37.6919 34.3323C37.7692 34.454 37.8172 34.5919 37.8321 34.7353C37.847 34.8787 37.8283 35.0236 37.7776 35.1585C37.7269 35.2934 37.6455 35.4147 37.5398 35.5128L36.0149 37.0191C35.7965 37.2349 35.5281 37.3932 35.2337 37.48C34.9392 37.5668 34.6278 37.5794 34.3273 37.5165C31.3297 36.8974 28.5667 35.4475 26.3542 33.3324C24.1907 31.1963 22.6937 28.4783 22.0445 25.508C21.9804 25.2122 21.9938 24.9048 22.0834 24.6156C22.173 24.3265 22.3357 24.0654 22.5559 23.8576L24.1366 22.3327C24.2344 22.2322 24.3537 22.1551 24.4855 22.1073C24.6174 22.0594 24.7583 22.0419 24.8978 22.0562C25.0374 22.0706 25.1718 22.1162 25.2912 22.1899C25.4106 22.2635 25.5117 22.3632 25.5871 22.4815L27.7536 25.694C27.7909 25.7445 27.8111 25.8056 27.8111 25.8683C27.8111 25.9311 27.7909 25.9922 27.7536 26.0427L26.3263 27.7582C26.8217 29.0278 27.5935 30.1712 28.5857 31.1055Z" fill="white"/>
<defs>
<filter id="filter0_f_144:841" x="18.3271" y="4.67439" width="32.6655" height="34.4052" filterUnits="userSpaceOnUse" color-interpolation-filters="sRGB">
<feFlood flood-opacity="0" result="BackgroundImageFix"/>
<feBlend mode="normal" in="SourceGraphic" in2="BackgroundImageFix" result="shape"/>
<feGaussianBlur stdDeviation="4.9855" result="effect1_foregroundBlur_144:841"/>
</filter>
</defs>
</svg>
