<svg width="98" height="32" viewBox="0 0 98 32" fill="none" xmlns="http://www.w3.org/2000/svg">
<path d="M15.5857 0.298035C6.97795 0.298035 0 7.27598 0 15.8837H2C2 8.38055 8.08252 2.23905 15.5857 2.23905V0.298035ZM82.3975 0.298035H15.5857V2.23905L82.3975 2.29803V0.298035ZM97.9832 15.8837C97.9832 7.27598 91.0053 0.298035 82.3975 0.298035V2.29803C89.9007 2.29803 95.9832 8.38055 95.9832 15.8837H97.9832ZM82.3975 31.4694C91.0053 31.4694 97.9832 24.4915 97.9832 15.8837H95.9832C95.9832 23.3869 89.9007 29.4694 82.3975 29.4694V31.4694ZM15.5857 31.4694H82.3975V29.4694H15.5857V31.4694ZM0 15.8837C0 24.4915 6.97797 31.4694 15.5857 31.4694V29.4694C8.08253 29.4694 2 23.3869 2 15.8837H0Z" fill="#DADADA"/>
<path d="M38.3996 20.3557H37.4733L35.8467 14.9577C35.7695 14.7188 35.6832 14.4174 35.5876 14.0535C35.492 13.6895 35.4424 13.4708 35.4387 13.3973C35.3578 13.8825 35.2292 14.4137 35.0527 14.9908L33.4758 20.3557H32.5495L30.4047 12.2946H31.3971L32.6708 17.2735C32.8473 17.9719 32.9759 18.6041 33.0568 19.1702C33.156 18.4975 33.3031 17.8396 33.4979 17.1963L34.9425 12.2946H35.9349L37.4512 17.2404C37.6277 17.8101 37.7765 18.4534 37.8978 19.1702C37.9677 18.6482 38.1 18.0123 38.2948 17.2624L39.563 12.2946H40.5555L38.3996 20.3557Z" fill="white"/>
<path d="M45.8156 20.3557V16.4464C45.8156 15.9539 45.7035 15.5863 45.4792 15.3437C45.255 15.1011 44.904 14.9798 44.4261 14.9798C43.7902 14.9798 43.3252 15.1525 43.0311 15.4981C42.7407 15.8436 42.5955 16.4097 42.5955 17.1963V20.3557H41.6803V11.7763H42.5955V14.3732C42.5955 14.6857 42.5808 14.9448 42.5514 15.1507H42.6066C42.7867 14.8603 43.0422 14.6324 43.373 14.467C43.7075 14.2979 44.0879 14.2133 44.5143 14.2133C45.2532 14.2133 45.8064 14.3898 46.174 14.7427C46.5452 15.0919 46.7309 15.6488 46.7309 16.4133V20.3557H45.8156Z" fill="white"/>
<path d="M52.3328 20.3557L52.1509 19.4955H52.1068C51.8053 19.8741 51.5039 20.1314 51.2025 20.2674C50.9048 20.3998 50.5317 20.4659 50.0832 20.4659C49.4841 20.4659 49.0135 20.3115 48.6717 20.0028C48.3335 19.694 48.1644 19.2547 48.1644 18.685C48.1644 17.4646 49.1404 16.825 51.0922 16.7662L52.1178 16.7331V16.3582C52.1178 15.884 52.0149 15.5348 51.809 15.3106C51.6068 15.0827 51.2815 14.9687 50.8331 14.9687C50.3295 14.9687 49.7597 15.1231 49.1238 15.4319L48.8426 14.7316C49.1404 14.5699 49.4657 14.4431 49.8186 14.3512C50.1751 14.2593 50.5317 14.2133 50.8882 14.2133C51.6087 14.2133 52.1417 14.3732 52.4872 14.693C52.8364 15.0128 53.011 15.5256 53.011 16.2314V20.3557H52.3328ZM50.2652 19.7106C50.8349 19.7106 51.2815 19.5543 51.605 19.2419C51.9322 18.9294 52.0957 18.492 52.0957 17.9296V17.3838L51.1804 17.4223C50.4526 17.4481 49.927 17.562 49.6035 17.7642C49.2837 17.9627 49.1238 18.2733 49.1238 18.696C49.1238 19.0268 49.2231 19.2786 49.4216 19.4514C49.6237 19.6242 49.9049 19.7106 50.2652 19.7106Z" fill="white"/>
<path d="M56.8541 19.7106C57.0158 19.7106 57.172 19.6995 57.3228 19.6775C57.4735 19.6517 57.5929 19.626 57.6811 19.6003V20.3005C57.5819 20.3483 57.4349 20.3869 57.24 20.4163C57.0489 20.4494 56.8761 20.4659 56.7218 20.4659C55.5528 20.4659 54.9684 19.8502 54.9684 18.6188V15.0239H54.1027V14.5828L54.9684 14.2023L55.3543 12.9121H55.8837V14.3126H57.637V15.0239H55.8837V18.5802C55.8837 18.9441 55.97 19.2235 56.1428 19.4183C56.3156 19.6131 56.5527 19.7106 56.8541 19.7106Z" fill="white"/>
<path d="M62.7924 18.707C62.7924 19.2695 62.5829 19.7032 62.1638 20.0083C61.7448 20.3134 61.1566 20.4659 60.3994 20.4659C59.5981 20.4659 58.9732 20.3391 58.5248 20.0855V19.2364C58.8151 19.3834 59.1257 19.4992 59.4566 19.5837C59.7911 19.6683 60.1127 19.7106 60.4215 19.7106C60.8993 19.7106 61.2669 19.6352 61.5242 19.4845C61.7815 19.3301 61.9102 19.0967 61.9102 18.7842C61.9102 18.549 61.8073 18.3487 61.6014 18.1832C61.3992 18.0142 61.0023 17.8157 60.4105 17.5878C59.8481 17.3782 59.4474 17.1963 59.2085 17.0419C58.9732 16.8838 58.7968 16.7056 58.6791 16.5071C58.5652 16.3086 58.5082 16.0715 58.5082 15.7958C58.5082 15.3032 58.7085 14.9154 59.1092 14.6324C59.5099 14.3457 60.0594 14.2023 60.7578 14.2023C61.4084 14.2023 62.0444 14.3347 62.6656 14.5993L62.3403 15.3437C61.7338 15.0937 61.1842 14.9687 60.6917 14.9687C60.2579 14.9687 59.9308 15.0367 59.7102 15.1727C59.4897 15.3087 59.3794 15.4962 59.3794 15.7351C59.3794 15.8969 59.4198 16.0347 59.5007 16.1487C59.5852 16.2626 59.7194 16.3711 59.9032 16.474C60.087 16.5769 60.4399 16.7258 60.9618 16.9206C61.6786 17.1816 62.162 17.4444 62.4119 17.7091C62.6656 17.9737 62.7924 18.3064 62.7924 18.707Z" fill="white"/>
<path d="M69.4916 20.3557L68.4881 17.7918H65.257L64.2646 20.3557H63.3162L66.5031 12.2615H67.2916L70.462 20.3557H69.4916ZM68.1959 16.9482L67.2585 14.4504C67.1372 14.1343 67.0122 13.7465 66.8836 13.287C66.8027 13.6399 66.6869 14.0277 66.5362 14.4504L65.5879 16.9482H68.1959Z" fill="white"/>
<path d="M74.2444 20.4659C73.8511 20.4659 73.4909 20.3943 73.1637 20.2509C72.8403 20.1039 72.5683 19.8796 72.3477 19.5782H72.2815C72.3256 19.9311 72.3477 20.2656 72.3477 20.5817V23.0684H71.4324V14.3126H72.1768L72.3036 15.1397H72.3477C72.583 14.8088 72.8568 14.5699 73.1693 14.4229C73.4817 14.2758 73.8401 14.2023 74.2444 14.2023C75.0458 14.2023 75.6633 14.4762 76.097 15.0239C76.5345 15.5716 76.7532 16.3398 76.7532 17.3286C76.7532 18.3211 76.5308 19.093 76.086 19.6444C75.6449 20.1921 75.0311 20.4659 74.2444 20.4659ZM74.1121 14.9798C73.4946 14.9798 73.0479 15.1507 72.7723 15.4925C72.4966 15.8344 72.3551 16.3784 72.3477 17.1246V17.3286C72.3477 18.1777 72.4892 18.7861 72.7723 19.1537C73.0553 19.5176 73.5093 19.6995 74.1342 19.6995C74.6561 19.6995 75.0641 19.4882 75.3582 19.0654C75.6559 18.6427 75.8048 18.0601 75.8048 17.3176C75.8048 16.564 75.6559 15.9869 75.3582 15.5863C75.0641 15.1819 74.6488 14.9798 74.1121 14.9798Z" fill="white"/>
<path d="M81.1697 20.4659C80.7764 20.4659 80.4161 20.3943 80.089 20.2509C79.7655 20.1039 79.4935 19.8796 79.273 19.5782H79.2068C79.2509 19.9311 79.273 20.2656 79.273 20.5817V23.0684H78.3577V14.3126H79.102L79.2289 15.1397H79.273C79.5082 14.8088 79.7821 14.5699 80.0945 14.4229C80.407 14.2758 80.7654 14.2023 81.1697 14.2023C81.971 14.2023 82.5886 14.4762 83.0223 15.0239C83.4597 15.5716 83.6784 16.3398 83.6784 17.3286C83.6784 18.3211 83.4561 19.093 83.0113 19.6444C82.5702 20.1921 81.9563 20.4659 81.1697 20.4659ZM81.0374 14.9798C80.4198 14.9798 79.9732 15.1507 79.6975 15.4925C79.4218 15.8344 79.2803 16.3784 79.273 17.1246V17.3286C79.273 18.1777 79.4145 18.7861 79.6975 19.1537C79.9806 19.5176 80.4345 19.6995 81.0594 19.6995C81.5814 19.6995 81.9894 19.4882 82.2835 19.0654C82.5812 18.6427 82.7301 18.0601 82.7301 17.3176C82.7301 16.564 82.5812 15.9869 82.2835 15.5863C81.9894 15.1819 81.574 14.9798 81.0374 14.9798Z" fill="white"/>
<path d="M13.0001 24.0018L14.0605 20.1498C13.4066 19.0199 13.0627 17.7386 13.0631 16.4344C13.0631 12.335 16.4149 9 20.5266 9C22.525 9 24.3974 9.77557 25.8063 11.179C27.2151 12.5824 27.9901 14.4512 27.9901 16.4381C27.9901 20.5376 24.6384 23.8725 20.5266 23.8725H20.5229C19.2734 23.8725 18.0462 23.5586 16.9562 22.9677L13.0001 24.0018Z" fill="white"/>
<path d="M14 23.0811L14.9246 19.7223C14.3545 18.7371 14.0545 17.6198 14.055 16.4826C14.055 12.908 16.9776 10 20.5628 10C22.3054 10 23.9381 10.6763 25.1666 11.9C26.3951 13.1237 27.0708 14.7533 27.0708 16.4858C27.0708 20.0604 24.1482 22.9684 20.5629 22.9684H20.5597C19.4701 22.9684 18.4 22.6947 17.4495 22.1794L14 23.0811Z" fill="#60D66A"/>
<path d="M18.7395 13.2931C18.6134 13.0129 18.4808 13.0064 18.3612 13.0032C18.2643 13 18.1511 13 18.0379 13C17.9248 13 17.7437 13.0419 17.5886 13.2093C17.4333 13.3768 17.0001 13.7826 17.0001 14.6102C17.0001 15.4346 17.6047 16.2332 17.6888 16.3459C17.7728 16.4587 18.8558 18.2073 20.5661 18.8804C21.9886 19.4408 22.2796 19.328 22.5867 19.299C22.897 19.2701 23.5824 18.8933 23.7247 18.5004C23.8637 18.1075 23.8637 17.7726 23.8217 17.7017C23.7796 17.6308 23.6665 17.589 23.4983 17.5053C23.3303 17.4216 22.5026 17.0158 22.3475 16.9578C22.1923 16.8999 22.0791 16.8741 21.9692 17.0416C21.856 17.209 21.5328 17.5858 21.4357 17.6985C21.3387 17.8112 21.2385 17.8241 21.0704 17.7404C20.9023 17.6567 20.3592 17.4795 19.7158 16.9063C19.2147 16.4619 18.8753 15.9112 18.7782 15.7438C18.6813 15.5763 18.7686 15.4861 18.8526 15.4024C18.927 15.3283 19.0207 15.2059 19.1048 15.1093C19.1889 15.0127 19.218 14.9419 19.2729 14.8291C19.3279 14.7165 19.302 14.6199 19.26 14.5361C19.218 14.4524 18.8882 13.6247 18.7395 13.2931Z" fill="white"/>
</svg>
